HIERARCHY
ROOT Hips
{
 OFFSET 0.000000 0.000000 0.000000
 CHANNELS 6 Xposition Yposition Zposition Yrotation Xrotation Zrotation
 JOINT Chest
 {
  OFFSET 0.000000 10.383400 0.001500
  CHANNELS 3 Yrotation Xrotation Zrotation
  JOINT Chest2
  {
   OFFSET 0.000000 10.418200 -0.003100
   CHANNELS 3 Yrotation Xrotation Zrotation
   JOINT Chest3
   {
    OFFSET 0.000000 10.375100 0.000000
    CHANNELS 3 Yrotation Xrotation Zrotation
    JOINT Chest4
    {
     OFFSET 0.000000 10.364600 0.000000
     CHANNELS 3 Yrotation Xrotation Zrotation
     JOINT Neck
     {
      OFFSET 0.000000 15.642200 0.000000
      CHANNELS 3 Yrotation Xrotation Zrotation
      JOINT Head
      {
       OFFSET 0.000000 9.697300 -0.006500
       CHANNELS 3 Yrotation Xrotation Zrotation
       End Site
       {
        OFFSET 0.000000 18.492200 -0.003400
       }
      }
     }
     JOINT RightCollar
     {
      OFFSET -3.166800 10.349300 0.000000
      CHANNELS 3 Yrotation Xrotation Zrotation
      JOINT RightShoulder
      {
       OFFSET -14.729700 0.000000 0.000000
       CHANNELS 3 Yrotation Xrotation Zrotation
       JOINT RightElbow
       {
        OFFSET 0.000000 -32.224300 0.000000
        CHANNELS 3 Yrotation Xrotation Zrotation
        JOINT RightWrist
        {
         OFFSET 0.000000 -26.084100 0.000000
         CHANNELS 3 Yrotation Xrotation Zrotation
         End Site
         {
          OFFSET 0.000000 -19.319400 0.000000
         }
        }
       }
      }
     }
     JOINT LeftCollar
     {
      OFFSET 3.166800 10.349300 0.000000
      CHANNELS 3 Yrotation Xrotation Zrotation
      JOINT LeftShoulder
      {
       OFFSET 14.729700 0.000000 0.000000
       CHANNELS 3 Yrotation Xrotation Zrotation
       JOINT LeftElbow
       {
        OFFSET 0.000000 -32.224300 0.000000
        CHANNELS 3 Yrotation Xrotation Zrotation
        JOINT LeftWrist
        {
         OFFSET 0.000000 -26.084100 0.000000
         CHANNELS 3 Yrotation Xrotation Zrotation
         End Site
         {
          OFFSET 0.000000 -19.319400 0.000000
         }
        }
       }
      }
     }
    }
   }
  }
 }
 JOINT RightHip
 {
  OFFSET -8.428900 -0.007500 -0.000800
  CHANNELS 3 Yrotation Xrotation Zrotation
  JOINT RightKnee
  {
   OFFSET 0.000000 -43.834600 0.000700
   CHANNELS 3 Yrotation Xrotation Zrotation
   JOINT RightAnkle
   {
    OFFSET 0.000000 -42.757000 0.001200
    CHANNELS 3 Yrotation Xrotation Zrotation
    JOINT RightToe
    {
     OFFSET 0.000000 -6.946900 15.649300
     CHANNELS 3 Yrotation Xrotation Zrotation
     End Site
     {
      OFFSET 0.000000 -1.580800 6.825800
     }
    }
   }
  }
 }
 JOINT LeftHip
 {
  OFFSET 8.428900 -0.007500 -0.000800
  CHANNELS 3 Yrotation Xrotation Zrotation
  JOINT LeftKnee
  {
   OFFSET 0.000000 -43.834600 0.000700
   CHANNELS 3 Yrotation Xrotation Zrotation
   JOINT LeftAnkle
   {
    OFFSET 0.000000 -42.757000 0.001200
    CHANNELS 3 Yrotation Xrotation Zrotation
    JOINT LeftToe
    {
     OFFSET 0.000000 -6.946900 15.649300
     CHANNELS 3 Yrotation Xrotation Zrotation
     End Site
     {
      OFFSET 0.000000 -1.580800 6.825800
     }
    }
   }
  }
 }
}
MOTION
Frames: 9
Frame Time: 0.008333
125.612684 126.860049 21.187809 -25.719379 -26.475431 -1.948514 -4.767636 16.148246 -0.293326 -0.482793 1.665802 0.034016 -0.805499 2.780019 0.049049 -4.177095 14.250278 -0.169341 11.643396 11.491869 -1.010039 22.680548 -13.337170 -6.793675 -5.080217 -5.733222 -12.576459 13.764900 5.449800 -35.940674 103.757149 -66.012273 -44.577339 6.311026 -30.585196 -13.358228 -6.417624 -11.855184 -0.950580 8.335617 -42.974230 21.460849 10.581895 -80.766958 4.301031 -12.962692 -18.650407 36.845027 -15.436270 -40.723469 5.425867 -49.381114 71.585893 -46.100679 -6.597862 -7.056400 -1.255905 -0.001190 -0.013563 -0.000528 -7.656180 -34.712324 3.260892 5.261081 70.777005 12.443183 -10.775613 -9.607555 -9.888674 0.003600 0.002998 0.001598
125.609111 126.855667 21.193696 -25.775253 -26.383682 -1.996338 -4.863546 16.174114 -0.260051 -0.495662 1.674944 0.037318 -0.826686 2.794541 0.054326 -4.268614 14.270344 -0.152536 11.698266 11.427618 -1.089699 22.829033 -13.429044 -6.979436 -5.071029 -5.777790 -12.656268 13.887846 5.305624 -35.985654 103.696779 -66.072262 -44.490795 6.349357 -30.622511 -13.399940 -6.448565 -11.889846 -0.889671 7.718627 -42.631663 21.840595 5.052391 -81.559605 10.649663 -12.889915 -19.176225 37.136478 -15.520018 -40.756812 5.560047 -49.172244 71.593931 -45.855879 -6.614956 -7.096643 -1.331979 0.022886 -0.011339 0.010157 -7.707880 -34.789158 3.378897 5.340562 70.796675 12.514030 -10.765982 -9.639944 -9.906105 0.002777 0.004760 0.001233
125.606790 126.852136 21.202142 -25.824897 -26.302550 -2.048069 -4.962703 16.212393 -0.248475 -0.508272 1.685135 0.039840 -0.847352 2.810658 0.058312 -4.356291 14.294552 -0.142305 11.744875 11.350823 -1.159784 22.960499 -13.547036 -7.146898 -5.072427 -5.810131 -12.709300 13.980672 5.153939 -36.026912 103.692866 -66.123160 -44.457141 6.390570 -30.673537 -13.447849 -6.479868 -11.935109 -0.845458 7.270326 -42.265261 22.097999 -3.123225 -82.507687 19.533337 -12.752466 -19.867785 37.239988 -15.626313 -40.771234 5.708689 -48.990415 71.574950 -45.688907 -6.583867 -7.132932 -1.360975 0.023714 -0.007681 0.010526 -7.763046 -34.856911 3.494104 5.460715 70.817453 12.624491 -10.774113 -9.673975 -9.916798 -0.001428 0.006553 -0.000634
125.604487 126.848471 21.210178 -25.872299 -26.221133 -2.112570 -5.049448 16.244199 -0.244871 -0.519179 1.694162 0.041227 -0.865260 2.824879 0.060356 -4.432284 14.315901 -0.140727 11.780885 11.265254 -1.206111 23.063931 -13.687683 -7.267379 -5.092497 -5.817709 -12.727044 14.028506 5.011708 -36.064278 103.757594 -66.168334 -44.484366 6.443610 -30.732570 -13.503291 -6.522008 -11.980783 -0.820718 7.005255 -41.926883 22.270540 -14.278403 -83.425375 31.224975 -12.598378 -20.629553 37.190728 -15.759091 -40.775037 5.878252 -48.798610 71.542786 -45.506906 -6.554609 -7.171201 -1.401378 0.026014 -0.003180 0.011547 -7.831030 -34.925571 3.619793 5.532681 70.839034 12.699502 -10.761775 -9.702670 -9.942607 -0.003145 0.007308 -0.001396
125.599324 126.845114 21.217256 -25.926853 -26.146240 -2.197887 -5.106211 16.272776 -0.233392 -0.527400 1.700979 0.041343 -0.878800 2.835649 0.060356 -4.490384 14.331822 -0.147735 11.804402 11.175694 -1.222227 23.132097 -13.844049 -7.326854 -5.136370 -5.797315 -12.704784 14.024552 4.891406 -36.095764 103.889898 -66.207069 -44.573017 6.507273 -30.794290 -13.562031 -6.580190 -12.019091 -0.815404 6.943650 -41.655540 22.383462 -28.267571 -84.193943 45.530328 -12.487928 -21.371770 37.035853 -15.909309 -40.761044 6.072997 -48.608229 71.503154 -45.313597 -6.511960 -7.211881 -1.457614 0.029993 -0.001382 0.013314 -7.914742 -34.987336 3.759918 5.567629 70.881797 12.779786 -10.718231 -9.752729 -9.994592 0.007827 0.006870 0.003475
125.597265 126.841237 21.225165 -25.983751 -26.071826 -2.268437 -5.150354 16.289007 -0.247854 -0.532814 1.706353 0.040553 -0.887652 2.844102 0.058902 -4.528026 14.345630 -0.159953 11.814149 11.085908 -1.213336 23.164007 -14.008605 -7.333681 -5.201962 -5.754978 -12.650313 13.970229 4.795952 -36.118805 104.079109 -66.235895 -44.718542 6.577419 -30.856268 -13.619493 -6.646828 -12.050030 -0.828620 7.123605 -41.482444 22.437498 -44.613289 -84.770676 61.921812 -12.469847 -22.022199 36.834954 -16.039279 -40.748122 6.239595 -48.418477 71.468549 -45.120253 -6.466168 -7.280804 -1.495210 0.027840 -0.005314 0.012357 -7.992985 -35.051002 3.885613 5.609290 70.907680 12.835808 -10.655516 -9.775249 -10.002142 0.013061 0.005633 0.005798
125.593481 126.838041 21.234095 -26.049457 -26.012728 -2.341260 -5.174870 16.313274 -0.263166 -0.535388 1.711234 0.039368 -0.891824 2.851840 0.056759 -4.543472 14.361281 -0.173064 11.810082 10.996763 -1.189927 23.163600 -14.177548 -7.307476 -5.287277 -5.701538 -12.580819 13.876715 4.727743 -36.125906 104.311126 -66.249818 -44.914656 6.649994 -30.914696 -13.675289 -6.710360 -12.074761 -0.860008 7.577563 -41.432938 22.426513 -62.825054 -85.132656 79.867702 -12.547451 -22.552209 36.660113 -16.144862 -40.723895 6.391886 -48.232795 71.444898 -44.914327 -6.424672 -7.305131 -1.551815 0.022682 0.004201 0.010070 -8.068226 -35.099964 4.014938 5.650695 70.933674 12.899021 -10.615682 -9.799126 -10.028103 0.011711 0.002850 0.005199
125.591326 126.834331 21.243437 -26.129482 -25.955888 -2.395746 -5.181283 16.338004 -0.290216 -0.535583 1.716264 0.038198 -0.892125 2.859952 0.054711 -4.539520 14.380846 -0.183753 11.794512 10.908014 -1.163183 23.139763 -14.348449 -7.270367 -5.385010 -5.652571 -12.512689 13.757525 4.692750 -36.106592 104.563879 -66.243803 -45.148768 6.714851 -30.965212 -13.727442 -6.760732 -12.095875 -0.907737 8.295443 -41.516100 22.343359 -82.049807 -85.223160 98.514118 -12.682611 -22.979005 36.579342 -16.200535 -40.704711 6.508051 -48.049959 71.435046 -44.692869 -6.400057 -7.356012 -1.598133 0.015436 0.007270 0.006853 -8.121399 -35.150315 4.128125 5.751597 70.951887 13.000573 -10.585710 -9.811640 -10.038526 0.000244 -0.000304 0.000108
125.586773 126.830260 21.251198 -26.216030 -25.900335 -2.457965 -5.167512 16.368983 -0.298478 -0.534333 1.721649 0.037448 -0.890020 2.868623 0.053440 -4.523093 14.403841 -0.189399 11.831160 10.800834 -1.124364 23.045897 -14.492287 -7.238576 -5.484339 -5.618197 -12.457506 13.626561 4.692065 -36.059058 104.803923 -66.221532 -45.398743 6.768307 -31.006546 -13.775759 -6.795983 -12.116425 -0.967399 9.211891 -41.708073 22.172995 -100.298099 -84.983556 115.932930 -12.839670 -23.352182 36.642205 -16.228188 -40.689358 6.615502 -47.878344 71.440404 -44.464378 -6.361991 -7.400284 -1.649557 0.009914 0.007744 0.004401 -8.172383 -35.198469 4.236212 5.785249 70.981719 13.084076 -10.518831 -9.836751 -10.102107 0.001083 -0.003816 0.000481
